<svg width="76" height="41" viewBox="0 0 76 41" fill="none" xmlns="http://www.w3.org/2000/svg">
<path d="M0 4.82353C0 2.15957 2.1719 0 4.85106 0H70.3404V41H4.85106C2.17189 41 0 38.8404 0 36.1765V4.82353Z" fill="#1E71D9"/>
<path d="M37.1915 0H71.1489C73.8281 0 76 2.15957 76 4.82353V36.1765C76 38.8404 73.8281 41 71.1489 41H37.1915V0Z" fill="url(#paint0_linear_51_2288)"/>
<path d="M19.4948 9.25796C20.5588 9.25796 21.4643 9.29172 22.2114 9.35925C22.9585 9.40427 23.6489 9.48306 24.2828 9.59561C24.9167 9.68565 25.5732 9.82071 26.2523 10.0008L25.8788 13.1409C25.177 13.0959 24.5205 13.0621 23.9093 13.0396C23.298 12.9946 22.6415 12.9608 21.9397 12.9383C21.2606 12.9158 20.4456 12.9045 19.4948 12.9045C18.1818 12.9045 17.1517 13.1634 16.4047 13.6811C15.6576 14.1989 15.1256 15.0655 14.8087 16.281C14.5144 17.4965 14.3672 19.1735 14.3672 21.312C14.3672 23.4504 14.5144 25.1274 14.8087 26.3429C15.1256 27.5584 15.6576 28.4251 16.4047 28.9428C17.1517 29.4605 18.1818 29.7194 19.4948 29.7194C21.0116 29.7194 22.2793 29.6969 23.298 29.6518C24.3394 29.5843 25.3581 29.4943 26.3542 29.3817L26.7277 32.4881C25.709 32.8032 24.6563 33.0283 23.5697 33.1634C22.4831 33.2984 21.1248 33.366 19.4948 33.366C17.1404 33.366 15.2614 32.9833 13.8579 32.218C12.4543 31.4301 11.4356 30.1583 10.8017 28.4025C10.1905 26.6468 9.88485 24.2833 9.88485 21.312C9.88485 18.3407 10.1905 15.9771 10.8017 14.2214C11.4356 12.4656 12.4543 11.2051 13.8579 10.4397C15.2614 9.65188 17.1404 9.25796 19.4948 9.25796Z" fill="white"/>
<path d="M65.8144 9.66314C65.339 11.1038 64.9089 12.3981 64.524 13.5461C64.1392 14.6716 63.743 15.662 63.3355 16.5174C62.9506 17.3727 62.5318 18.0931 62.0791 18.6783C61.6263 19.2636 61.0943 19.725 60.4831 20.0627C59.8718 20.4003 59.1361 20.6254 58.2758 20.738V20.873C59.1814 20.9856 59.9624 21.2107 60.6189 21.5483C61.2754 21.886 61.8414 22.3699 62.3168 23.0002C62.8148 23.6305 63.2676 24.4071 63.6751 25.33C64.1052 26.2529 64.5353 27.3446 64.9655 28.6051C65.3956 29.8657 65.8936 31.3176 66.4596 32.9608H61.9772C61.366 31.07 60.8226 29.4605 60.3472 28.1324C59.8945 26.7818 59.4191 25.6901 58.921 24.8573C58.4456 24.0019 57.8797 23.3716 57.2232 22.9664C56.5893 22.5613 55.7743 22.3587 54.7782 22.3587L54.7443 19.2861C55.6951 19.2861 56.4874 19.0722 57.1213 18.6445C57.7778 18.2169 58.3437 17.5978 58.8191 16.7875C59.2946 15.9546 59.736 14.9417 60.1435 13.7487C60.551 12.5556 61.0037 11.1938 61.5018 9.66314H65.8144ZM52.9785 9.66314V16.5511C52.9785 17.2715 52.9219 17.9918 52.8087 18.7121C52.7181 19.4099 52.571 20.0964 52.3672 20.7717C52.5257 21.4245 52.6615 22.0998 52.7747 22.7976C52.9106 23.4729 52.9785 24.1257 52.9785 24.756V32.9608H48.7338V9.66314H52.9785ZM56.1705 19.2861V22.3587H51.8239V19.2861H56.1705Z" fill="white"/>
<path d="M37.1915 6.10478L38.1516 19.9473L52.0731 20.902L38.1516 21.8566L37.1915 35.6991L36.2314 21.8566L22.3098 20.902L36.2314 19.9473L37.1915 6.10478Z" fill="white"/>
<path d="M30.4707 14.2194L37.1915 20.227L48.7128 9.44608L37.8703 20.902L43.9122 27.5846L37.1915 21.5769L25.6702 32.3578L36.5127 20.902L30.4707 14.2194Z" fill="white"/>
<defs>
<linearGradient id="paint0_linear_51_2288" x1="76" y1="41" x2="46.5616" y2="-23.0187" gradientUnits="userSpaceOnUse">
<stop stop-color="#253140"/>
<stop offset="1" stop-color="#5075A3"/>
</linearGradient>
</defs>
</svg>
