<svg width="218" height="51" viewBox="0 0 218 51" fill="none" xmlns="http://www.w3.org/2000/svg">
<path d="M0 6C0 2.68629 2.68629 0 6 0H87V51H6C2.68629 51 0 48.3137 0 45V6Z" fill="#1E71D9"/>
<path d="M46 0H88C91.3137 0 94 2.68629 94 6V45C94 48.3137 91.3137 51 88 51H46V0Z" fill="url(#paint0_linear_99_1263)"/>
<path d="M24.112 11.516C25.428 11.516 26.548 11.558 27.472 11.642C28.396 11.698 29.25 11.796 30.034 11.936C30.818 12.048 31.63 12.216 32.47 12.44L32.008 16.346C31.14 16.29 30.328 16.248 29.572 16.22C28.816 16.164 28.004 16.122 27.136 16.094C26.296 16.066 25.288 16.052 24.112 16.052C22.488 16.052 21.214 16.374 20.29 17.018C19.366 17.662 18.708 18.74 18.316 20.252C17.952 21.764 17.77 23.85 17.77 26.51C17.77 29.17 17.952 31.256 18.316 32.768C18.708 34.28 19.366 35.358 20.29 36.002C21.214 36.646 22.488 36.968 24.112 36.968C25.988 36.968 27.556 36.94 28.816 36.884C30.104 36.8 31.364 36.688 32.596 36.548L33.058 40.412C31.798 40.804 30.496 41.084 29.152 41.252C27.808 41.42 26.128 41.504 24.112 41.504C21.2 41.504 18.876 41.028 17.14 40.076C15.404 39.096 14.144 37.514 13.36 35.33C12.604 33.146 12.226 30.206 12.226 26.51C12.226 22.814 12.604 19.874 13.36 17.69C14.144 15.506 15.404 13.938 17.14 12.986C18.876 12.006 21.2 11.516 24.112 11.516Z" fill="white"/>
<path d="M81.402 12.02C80.814 13.812 80.282 15.422 79.806 16.85C79.33 18.25 78.84 19.482 78.336 20.546C77.86 21.61 77.342 22.506 76.782 23.234C76.222 23.962 75.564 24.536 74.808 24.956C74.052 25.376 73.142 25.656 72.078 25.796V25.964C73.198 26.104 74.164 26.384 74.976 26.804C75.788 27.224 76.488 27.826 77.076 28.61C77.692 29.394 78.252 30.36 78.756 31.508C79.288 32.656 79.82 34.014 80.352 35.582C80.884 37.15 81.5 38.956 82.2 41H76.656C75.9 38.648 75.228 36.646 74.64 34.994C74.08 33.314 73.492 31.956 72.876 30.92C72.288 29.856 71.588 29.072 70.776 28.568C69.992 28.064 68.984 27.812 67.752 27.812L67.71 23.99C68.886 23.99 69.866 23.724 70.65 23.192C71.462 22.66 72.162 21.89 72.75 20.882C73.338 19.846 73.884 18.586 74.388 17.102C74.892 15.618 75.452 13.924 76.068 12.02H81.402ZM65.526 12.02V20.588C65.526 21.484 65.456 22.38 65.316 23.276C65.204 24.144 65.022 24.998 64.77 25.838C64.966 26.65 65.134 27.49 65.274 28.358C65.442 29.198 65.526 30.01 65.526 30.794V41H60.276V12.02H65.526ZM69.474 23.99V27.812H64.098V23.99H69.474Z" fill="white"/>
<path d="M46 7.59375L47.1875 24.8125L64.4062 26L47.1875 27.1875L46 44.4062L44.8125 27.1875L27.5938 26L44.8125 24.8125L46 7.59375Z" fill="white"/>
<path d="M37.6875 17.6875L46 25.1604L60.25 11.75L46.8396 26L54.3125 34.3125L46 26.8396L31.75 40.25L45.1604 26L37.6875 17.6875Z" fill="white"/>
<path d="M114.992 24.23C113.949 24.23 113.037 24.0383 112.255 23.655C111.488 23.2563 110.89 22.689 110.461 21.953C110.047 21.2017 109.84 20.3277 109.84 19.331V11.879C109.84 10.867 110.047 9.993 110.461 9.257C110.89 8.521 111.488 7.96133 112.255 7.578C113.037 7.17933 113.949 6.98 114.992 6.98C116.035 6.98 116.939 7.17933 117.706 7.578C118.473 7.97667 119.063 8.544 119.477 9.28C119.906 10.0007 120.121 10.867 120.121 11.879H117.637C117.637 11.005 117.407 10.338 116.947 9.878C116.487 9.418 115.835 9.188 114.992 9.188C114.149 9.188 113.489 9.418 113.014 9.878C112.554 10.338 112.324 10.9973 112.324 11.856V19.331C112.324 20.1897 112.554 20.8567 113.014 21.332C113.489 21.792 114.149 22.022 114.992 22.022C115.835 22.022 116.487 21.792 116.947 21.332C117.407 20.8567 117.637 20.1897 117.637 19.331H120.121C120.121 20.3277 119.906 21.194 119.477 21.93C119.063 22.666 118.473 23.2333 117.706 23.632C116.939 24.0307 116.035 24.23 114.992 24.23Z" fill="#1E71D9"/>
<path d="M123.746 24V7.21H128.691C130.286 7.21 131.535 7.59333 132.44 8.36C133.345 9.12667 133.797 10.1847 133.797 11.534C133.797 12.3007 133.628 12.9677 133.291 13.535C132.969 14.087 132.517 14.5163 131.934 14.823C131.351 15.1297 130.669 15.283 129.887 15.283V15.053C130.73 15.0377 131.474 15.1987 132.118 15.536C132.762 15.858 133.268 16.341 133.636 16.985C134.004 17.629 134.188 18.3957 134.188 19.285C134.188 20.2357 133.973 21.0713 133.544 21.792C133.13 22.4973 132.532 23.0417 131.75 23.425C130.983 23.8083 130.071 24 129.013 24H123.746ZM126.161 21.861H128.806C129.695 21.861 130.401 21.6233 130.922 21.148C131.443 20.6727 131.704 20.0133 131.704 19.17C131.704 18.3113 131.443 17.6213 130.922 17.1C130.401 16.5787 129.695 16.318 128.806 16.318H126.161V21.861ZM126.161 14.248H128.668C129.496 14.248 130.148 14.0257 130.623 13.581C131.098 13.1363 131.336 12.5383 131.336 11.787C131.336 11.0357 131.098 10.4453 130.623 10.016C130.148 9.57133 129.504 9.349 128.691 9.349H126.161V14.248Z" fill="#1E71D9"/>
<path d="M136.571 24L140.849 7.21H144.115L148.393 24H145.886L144.874 19.745H140.113L139.101 24H136.571ZM140.573 17.698H144.391L143.241 12.845C143.042 11.9863 142.873 11.2427 142.735 10.614C142.612 9.97 142.528 9.533 142.482 9.303C142.436 9.533 142.352 9.97 142.229 10.614C142.106 11.2427 141.938 11.9787 141.723 12.822L140.573 17.698Z" fill="#1E71D9"/>
<path d="M151.305 24V7.21H156.802C157.891 7.21 158.834 7.417 159.631 7.831C160.444 8.245 161.065 8.83533 161.494 9.602C161.939 10.3533 162.161 11.2427 162.161 12.27C162.161 13.282 161.939 14.1713 161.494 14.938C161.049 15.7047 160.428 16.295 159.631 16.709C158.834 17.123 157.891 17.33 156.802 17.33H153.789V24H151.305ZM153.789 15.099H156.802C157.661 15.099 158.343 14.846 158.849 14.34C159.37 13.8187 159.631 13.1287 159.631 12.27C159.631 11.396 159.37 10.706 158.849 10.2C158.343 9.694 157.661 9.441 156.802 9.441H153.789V15.099Z" fill="#1E71D9"/>
<path d="M109.932 48V31.21H112.416V38.202H114.647L118.074 31.21H120.788L116.832 39.26L120.972 48H118.189L114.601 40.433H112.416V48H109.932Z" fill="black"/>
<path d="M128.691 48.23C127.648 48.23 126.744 48.0383 125.977 47.655C125.226 47.2563 124.643 46.689 124.229 45.953C123.83 45.2017 123.631 44.3277 123.631 43.331V35.879C123.631 34.867 123.83 33.993 124.229 33.257C124.643 32.521 125.226 31.9613 125.977 31.578C126.744 31.1793 127.648 30.98 128.691 30.98C129.734 30.98 130.631 31.1793 131.382 31.578C132.149 31.9613 132.731 32.521 133.13 33.257C133.544 33.993 133.751 34.8593 133.751 35.856V43.331C133.751 44.3277 133.544 45.2017 133.13 45.953C132.731 46.689 132.149 47.2563 131.382 47.655C130.631 48.0383 129.734 48.23 128.691 48.23ZM128.691 46.022C129.534 46.022 130.171 45.792 130.6 45.332C131.045 44.8567 131.267 44.1897 131.267 43.331V35.879C131.267 35.005 131.045 34.338 130.6 33.878C130.171 33.418 129.534 33.188 128.691 33.188C127.863 33.188 127.227 33.418 126.782 33.878C126.337 34.338 126.115 35.005 126.115 35.879V43.331C126.115 44.1897 126.337 44.8567 126.782 45.332C127.227 45.792 127.863 46.022 128.691 46.022Z" fill="black"/>
<path d="M137.537 48V31.21H140.021V38.156H144.943V31.21H147.427V48H144.943V40.456H140.021V48H137.537Z" fill="black"/>
<path d="M155.031 48V33.487H150.546V31.187H162V33.487H157.515V48H155.031Z" fill="black"/>
<path d="M165.096 48V31.21H170.593C171.682 31.21 172.625 31.417 173.422 31.831C174.235 32.245 174.856 32.8353 175.285 33.602C175.73 34.3533 175.952 35.2427 175.952 36.27C175.952 37.282 175.73 38.1713 175.285 38.938C174.84 39.7047 174.219 40.295 173.422 40.709C172.625 41.123 171.682 41.33 170.593 41.33H167.58V48H165.096ZM167.58 39.099H170.593C171.452 39.099 172.134 38.846 172.64 38.34C173.161 37.8187 173.422 37.1287 173.422 36.27C173.422 35.396 173.161 34.706 172.64 34.2C172.134 33.694 171.452 33.441 170.593 33.441H167.58V39.099Z" fill="black"/>
<path d="M183.855 48.23C182.812 48.23 181.908 48.0383 181.141 47.655C180.39 47.2563 179.807 46.689 179.393 45.953C178.994 45.2017 178.795 44.3277 178.795 43.331V35.879C178.795 34.867 178.994 33.993 179.393 33.257C179.807 32.521 180.39 31.9613 181.141 31.578C181.908 31.1793 182.812 30.98 183.855 30.98C184.898 30.98 185.795 31.1793 186.546 31.578C187.313 31.9613 187.895 32.521 188.294 33.257C188.708 33.993 188.915 34.8593 188.915 35.856V43.331C188.915 44.3277 188.708 45.2017 188.294 45.953C187.895 46.689 187.313 47.2563 186.546 47.655C185.795 48.0383 184.898 48.23 183.855 48.23ZM183.855 46.022C184.698 46.022 185.335 45.792 185.764 45.332C186.209 44.8567 186.431 44.1897 186.431 43.331V35.879C186.431 35.005 186.209 34.338 185.764 33.878C185.335 33.418 184.698 33.188 183.855 33.188C183.027 33.188 182.391 33.418 181.946 33.878C181.501 34.338 181.279 35.005 181.279 35.879V43.331C181.279 44.1897 181.501 44.8567 181.946 45.332C182.391 45.792 183.027 46.022 183.855 46.022Z" fill="black"/>
<path d="M191.183 48.115V45.838H191.666C192.264 45.838 192.701 45.562 192.977 45.01C193.268 44.458 193.422 43.561 193.437 42.319L193.621 31.21H202.568V48H200.084V33.487H196.082L195.921 42.319C195.89 44.251 195.53 45.7 194.84 46.666C194.165 47.632 193.161 48.115 191.827 48.115H191.183Z" fill="black"/>
<path d="M206.515 48V31.21H208.999V38.018H211.989C213.062 38.018 213.998 38.225 214.795 38.639C215.592 39.053 216.213 39.6357 216.658 40.387C217.103 41.123 217.325 41.997 217.325 43.009C217.325 44.0057 217.103 44.8797 216.658 45.631C216.213 46.3823 215.592 46.965 214.795 47.379C213.998 47.793 213.062 48 211.989 48H206.515ZM208.999 45.792H211.92C212.779 45.792 213.469 45.539 213.99 45.033C214.527 44.527 214.795 43.8523 214.795 43.009C214.795 42.1657 214.527 41.491 213.99 40.985C213.469 40.479 212.779 40.226 211.92 40.226H208.999V45.792Z" fill="black"/>
<defs>
<linearGradient id="paint0_linear_99_1263" x1="217.325" y1="51" x2="198.77" y2="-41.7602" gradientUnits="userSpaceOnUse">
<stop stop-color="#253140"/>
<stop offset="1" stop-color="#5075A3"/>
</linearGradient>
</defs>
</svg>
